<?xml version="1.0" encoding="utf-8"?>
<!-- Generator: Adobe Illustrator 16.0.0, SVG Export Plug-In . SVG Version: 6.00 Build 0)  -->
<!DOCTYPE svg PUBLIC "-//W3C//DTD SVG 1.1//EN" "http://www.w3.org/Graphics/SVG/1.1/DTD/svg11.dtd">
<svg version="1.1" xmlns="http://www.w3.org/2000/svg" xmlns:xlink="http://www.w3.org/1999/xlink" x="0px" y="0px" width="197px"
	 height="258px" viewBox="0 0 197 258" enable-background="new 0 0 197 258" xml:space="preserve">
<g id="mouth">
	<path fill="none" stroke="#877162" stroke-width="2" stroke-miterlimit="10" d="M163,192c1-5,6-24.172,6-27c0-5,0-24-1-27
		s0-10,0-12"/>
	<path fill="none" stroke="#877162" stroke-width="2" stroke-miterlimit="10" d="M31,158.125l3,25.188"/>
	<path fill="none" stroke="#877162" stroke-width="2" stroke-miterlimit="10" d="M38,116c0,0-1,1,2-11c4.294-17.178,4-23,14-30
		c7.047-4.934,24.664-15.368,50-11c29,5,42.184,6.592,47,9c8,4,5.789,23.578,13,38c5,10,2,5,2,5"/>
	<path fill="none" stroke="#877162" stroke-width="2" stroke-miterlimit="10" d="M43,121c5-4,40.755-6.684,51,1c4,3-2,21-9,27
		c-1.698,1.455-25.119,9.16-40-2C41,144,43,121,43,121z"/>
	<path fill="none" stroke="#877162" stroke-width="2" stroke-miterlimit="10" d="M162.803,122c-4.811-4-40.947-6.684-50.803,1
		c-3.848,3,3.66,21,10.395,27c0.925,0.824,8.558,2.73,17.605,3c6.922,0.207,14.673-0.163,20.879-5
		C164.728,145,162.803,122,162.803,122z"/>
	<path fill="none" stroke="#877162" stroke-width="2" stroke-miterlimit="10" d="M31,158.125C31,154,35,127,37,125"/>
	<path fill="none" stroke="#877162" stroke-width="2" stroke-miterlimit="10" d="M73,192c0,0,5,4,8,5s17,2,25,2s15-1,18-3s6-5,6-5"
		/>
	<path fill="none" stroke="#877162" stroke-width="2" stroke-miterlimit="10" d="M134,125c0,0-4,1-4,4s1.5,2.5,3,4s6.5,0.5,8-1
		s1.5-4.5,0-6S135,125,134,125S134,125,134,125L134,125"/>
	<circle fill="none" stroke="#877162" stroke-width="2" stroke-miterlimit="10" cx="136" cy="129" r="2"/>
	<path fill="none" stroke="#877162" stroke-width="2" stroke-miterlimit="10" d="M119,132c2-1,8-7,11-7s10,0,14,2s6,5.5,6,5.5
		s-3,2.5-7,2.5s-9,0-13,0s-6-0.5-9-1.5S119,132,119,132z"/>
	<path fill="none" stroke="#877162" stroke-width="2" stroke-miterlimit="10" d="M70.84,125c0,0,4,1,4,4s-1.5,2.5-3,4s-6.5,0.5-8-1
		s-1.5-4.5,0-6S69.84,125,70.84,125S70.84,125,70.84,125L70.84,125"/>
	<circle fill="none" stroke="#877162" stroke-width="2" stroke-miterlimit="10" cx="68.84" cy="129" r="2"/>
	<path fill="none" stroke="#877162" stroke-width="2" stroke-miterlimit="10" d="M85.84,132c-2-1-8-7-11-7s-10,0-14,2s-6,5.5-6,5.5
		s3,2.5,7,2.5s9,0,13,0s6-0.5,9-1.5S85.84,132,85.84,132z"/>
	<path fill="none" stroke="#877162" stroke-width="2" stroke-miterlimit="10" d="M95,139c0,3-2,11-4,13s-9,10-9,11s-1,6,0,8s3,1,4,0
		s5-2,8,0s6,5,9,5s7-4,10-5s6-1,8,1s2,0,2,0s1-4,0-7s-7-9-8-13s-2-10-2-12"/>
	<path fill="none" stroke="#877162" stroke-width="2" stroke-miterlimit="10" d="M32,116c0,0,55.75-5.75,66.75,2.375
		c0,0,12.125,0.688,14.125-0.25c6.592-3.09,48.125-4.875,57.125,0.406V125c0,0-3.084,1.006-3.25,2c-1,6-0.822,18.55-2,22.25
		c-0.875,2.75-8.812,5.75-8.812,5.75s-21.973,1.5-31.969,0.25c-8-1-13.969-24.25-17.969-27.25h-5c-4.288,2-7.743,17.495-10,19.5
		c-8.996,7.992-17,8.5-18,8.5c-5.005,0-17,0-19,0c-4.538,0-11.774-5.412-15-10.25C38.5,145,39,125,39,125h-7V116z"/>
	<path fill="none" stroke="#877162" stroke-width="2" stroke-miterlimit="10" d="M43,209c3,3,32,34,55,34s27-3,47-21
		s5.52-24.013,28-39c6-4,5-20,4-29c0,0,9-3,10-11s4-8,5-17s-3-1-4-18s-3-22-6-25s-34-60-39-60s-6,7-11,5s-12-2-13-4s-5-9-5-9
		s-10-7-18-4s-4,4-4,4s-14-1-18-6s-10,5-9,4s-9,16-15,20s0,4,1,5S26.612,56.551,24,67c-1,4,2,7,1,8c-5.701,5.701-10,15-9,17
		s-3,16-3,20s0,28,1,34s-1,19,3,20s4,1,4,1s-1,10,4,13s9,5,9,5S40,206,43,209z"/>
	<path fill="none" stroke="#877162" stroke-width="2" stroke-miterlimit="10" d="M171,149"/>
</g>
<g id="eyes">
</g>
<g id="nose">
</g>
<g id="glasses">
</g>
<g id="Layer_1">
</g>
</svg>
